<svg height="700pt" preserveAspectRatio="xMidYMid meet" viewBox="0 0 700 700" width="700pt" xmlns="http://www.w3.org/2000/svg"><path d="m3275 6994c-303-30-443-53-645-105-407-105-754-262-1099-496-785-534-1328-1379-1480-2303-38-231-46-333-46-580 0-251 11-394 46-600 245-1420 1345-2554 2749-2834 264-53 352-60 700-60 344 0 440 9 715 66 524 108 1037 350 1470 694 141 113 426 398 539 539 344 433 586 946 694 1470 56 271 66 382 66 715 0 336-8 429-60 690-175 884-697 1676-1444 2192-467 322-1001 524-1570 593-127 15-545 28-635 19zm-1021-1914c27-14 62-41 77-60 17-23 224-543 588-1482 309-796 561-1453 561-1460 1-14 730 1849 730 1864 0 4-94 8-210 8-115 0-210 4-210 8 0 18 134 339 152 364 42 60 19 58 714 58 579 0 639-2 656-17 27-24 23-45-34-188-89-224-80-218-361-225l-209-5-507-1275c-279-701-515-1288-523-1305-72-137-281-149-370-20-19 28-1348 3345-1498 3739l-10 28 202-4c194-3 205-4 252-28zm3346 10c11-11 20-27 20-36 0-29-102-278-128-313-47-63-25-61-752-61-363 0-660 2-660 5 0 14 131 337 146 360 9 14 33 35 53 45 34 18 67 19 669 20 619 0 632 0 652-20z" transform="matrix(.1 0 0 -.1 0 700)"/></svg>