<?xml version="1.0" encoding="UTF-8"?>
<!DOCTYPE svg PUBLIC "-//W3C//DTD SVG 1.1//EN" "http://www.w3.org/Graphics/SVG/1.1/DTD/svg11.dtd">
<svg version="1.1" id="Calque_1" xmlns="http://www.w3.org/2000/svg" xmlns:xlink="http://www.w3.org/1999/xlink" x="0px" y="0px" width="260px" height="260px" viewBox="0 0 260 260" enable-background="new 0 0 260 260" xml:space="preserve">
    <path fill-rule="evenodd" clip-rule="evenodd" fill="#FFFFFF" d="M129.881,0c71.717,0,129.878,58.158,129.878,129.875  c0,71.727-58.161,129.883-129.878,129.883C58.16,260,0,201.602,0,129.875C0,58.159,58.16,0,129.881,0"/>
    <path fill-rule="evenodd" clip-rule="evenodd" fill="#0696B0" d="M66.845,70.208c18.394,45.998,36.626,92.056,54.943,138.078  c1.681,4.242,6.482,6.316,10.722,4.637c2.208-0.879,3.835-2.604,4.64-4.662l37.859-95.123h14.29c1.901,0,4.082-1.552,4.844-3.445  l3.619-9.045c0.763-1.905-0.174-3.471-2.076-3.471l-45.21,0.005c-1.906,0-4.089,1.541-4.849,3.439  c-1.665,4.17-3.302,8.341-4.978,12.517h16.029l-26.703,68.445c-0.171,0.44-0.342,1.353-0.513,1.786  c-0.173-0.433-0.339-1.345-0.51-1.786L87.771,75.425c-1.323-3.345-4.969-5.212-8.425-5.217H66.845z M200.017,86.17  c-16.217,0-32.431,0-48.646,0c1.674-4.175,3.312-8.346,4.979-12.516c0.759-1.904,2.938-3.442,4.844-3.442l45.208-0.005  c1.907,0,2.843,1.571,2.08,3.465l-3.617,9.046C204.102,84.623,201.923,86.17,200.017,86.17z"/>
</svg>
