<svg height="260" viewBox="0 0 260 260" width="260" xmlns="http://www.w3.org/2000/svg"><g fill="none" fill-rule="evenodd"><path d="m129.881 0c71.717 0 129.878 58.158 129.878 129.875 0 71.727-58.161 129.883-129.878 129.883-71.721.242-129.881-58.156-129.881-129.883 0-71.716 58.16-129.875 129.881-129.875" fill="#c30045"/><path d="m66.845 70.208c18.394 45.998 36.626 92.056 54.943 138.078 1.681 4.242 6.482 6.316 10.722 4.637 2.208-.879 3.835-2.604 4.64-4.662l37.859-95.123h14.29c1.901 0 4.082-1.552 4.844-3.445l3.619-9.045c.763-1.905-.174-3.471-2.076-3.471l-45.21.005c-1.906 0-4.089 1.541-4.849 3.439-1.665 4.17-3.302 8.341-4.978 12.517h16.029l-26.703 68.445c-.171.44-.342 1.353-.513 1.786-.173-.433-.339-1.345-.51-1.786l-41.181-106.158c-1.323-3.345-4.969-5.212-8.425-5.217zm133.172 15.962c-16.217 0-32.431 0-48.646 0 1.674-4.175 3.312-8.346 4.979-12.516.759-1.904 2.938-3.442 4.844-3.442l45.208-.005c1.907 0 2.843 1.571 2.08 3.465l-3.617 9.046c-.763 1.905-2.942 3.452-4.848 3.452z" fill="#fff"/></g></svg>
