<?xml version="1.0" encoding="UTF-8"?>
<svg width="260px" height="260px" viewBox="0 0 260 260" version="1.1" xmlns="http://www.w3.org/2000/svg" xmlns:xlink="http://www.w3.org/1999/xlink">
    <defs></defs>
    <g id="Page-1" stroke="none" stroke-width="1" fill="none" fill-rule="evenodd">
        <g id="logo_in_circle">
            <path d="M129.881,0 C201.598,0 259.759,58.158 259.759,129.875 C259.759,201.602 201.598,259.758 129.881,259.758 C58.16,259.758 0,201.602 0,129.875 C0,58.159 58.16,0 129.881,0" id="circle" fill="#0094B3"></path>
            <path d="M66.845,70.208 C85.239,116.206 103.471,162.264 121.788,208.286 C123.469,212.528 128.27,214.602 132.51,212.923 C134.718,212.044 136.345,210.319 137.15,208.261 L175.009,113.138 L189.299,113.138 C191.2,113.138 193.381,111.586 194.143,109.693 L197.762,100.648 C198.525,98.743 197.588,97.177 195.686,97.177 L150.476,97.182 C148.57,97.182 146.387,98.723 145.627,100.621 C143.962,104.791 142.325,108.962 140.649,113.138 L156.678,113.138 L129.975,181.583 C129.804,182.023 129.633,182.936 129.462,183.369 C129.289,182.936 129.123,182.024 128.952,181.583 L87.771,75.425 C86.448,72.08 82.802,70.213 79.346,70.208 L66.845,70.208 Z M200.017,86.17 C183.8,86.17 167.586,86.17 151.371,86.17 C153.045,81.995 154.683,77.824 156.35,73.654 C157.109,71.75 159.288,70.212 161.194,70.212 L206.402,70.207 C208.309,70.207 209.245,71.778 208.482,73.672 L204.865,82.718 C204.102,84.623 201.923,86.17 200.017,86.17 Z" id="V-shape" fill="#FFFFFF"></path>
        </g>
    </g>
</svg>
