<svg height="260" viewBox="0 0 260 260" width="260" xmlns="http://www.w3.org/2000/svg"><g fill="none"><path d="m129.881 0c71.717 0 129.878 58.158 129.878 129.875 0 71.727-58.161 129.883-129.878 129.883-71.721 0-129.881-58.156-129.881-129.883 0-71.716 58.16-129.875 129.881-129.875" fill="#0094b3"/><path d="m110.8 161.8v-9.6c0-29 33-33.6 33-54.2 0-9.4-8.4-16.6-19.4-16.6-11.4 0-21.4 8.4-21.4 8.4l-14-17.4s13.8-14.4 37.6-14.4c22.6 0 43.6 14 43.6 37.6 0 33-34.8 36.8-34.8 58.4v7.8zm0 41v-23.6h24.6v23.6z" fill="#fff"/></g></svg>