<svg height="55" viewBox="0 0 53 56" width="52" xmlns="http://www.w3.org/2000/svg"><g fill="none" fill-rule="evenodd"><g fill-rule="nonzero"><path class="group-shadow" d="m23.2356859 54.9725309-.0568073-.052022-.1580727.0794911s-13.13460407-5.3814136-13.18588074-5.4043326c-.91694543-.4025291-1.42107578-.8828712-1.40163954-1.4192973.05548684-1.5313957 4.35681078-3.0612893 10.27436338-3.8405386 3.9463707-1.3800928 10.5291802-2.3358315 17.087167-2.3358315 6.5775338 0 11.3173586.9610965 12.5752606 2.3474303 4.3572179.7827705 5.6680041 2.3050859 2.7726324 3.8289398-1.0771272.5668994-2.6160742 1.0703591-4.438093 1.4864255l-23.3617845 5.3372044-.0032044-.0617916z" fill="#000" fill-opacity=".15"/><path class="marker marker--secondary" d="m28.5134657 8.75910985c-7.9824327 0-14.454546 6.43102885-14.454546 14.36599815 0 2.2222403.5081676 4.3294629 1.4158228 6.2065602.0507715.1066674 13.0387232 25.3986356 13.0387232 25.3986356l12.8820719-25.0843796c1.0050426-1.9556612 1.572474-4.1723347 1.572474-6.5208162 0-7.9349693-6.4706678-14.36599815-14.4545459-14.36599815z" fill="#04768a" stroke="#fff" stroke-width="1.44" transform="matrix(.97437006 .22495105 -.22495105 .97437006 7.871804 -5.600519)"/><path class="marker marker--secondary" d="m17.8501717 8.75910984c-7.98243263 0-14.45454593 6.43102886-14.45454593 14.36599816 0 2.2222403.50816763 4.3294629 1.41582278 6.2065602.05077159.1066674 13.03872315 25.3986356 13.03872315 25.3986356l12.8820721-25.0843794c1.0050426-1.9556614 1.572474-4.1723349 1.572474-6.5208164 0-7.9349693-6.4706681-14.36599816-14.4545461-14.36599816z" fill="#04768a" stroke="#fff" stroke-width="1.44" transform="matrix(.97437006 -.22495105 .22495105 .97437006 -6.683507 4.82903)"/><path class="marker" d="m23.2090921 1.66666667c-9.0367163 0-16.36363698 7.32528439-16.36363698 16.36363703 0 2.5312501.57528409 4.9314888 1.60281823 7.0696025.05747728.1215 14.76081875 28.930399 14.76081875 28.930399l14.583478-28.5724444c1.1377841-2.2276024 1.7801591-4.7525116 1.7801591-7.4275571 0-9.03835264-7.3252844-16.36363703-16.3636371-16.36363703z" fill="#0696b0" stroke="#fff" stroke-width="1.636364"/></g><text fill="#fff" font-family="MuseoSans-700, Museo Sans" font-size="19.090909" font-weight="500"><tspan class="marker-total" x="12.241365" y="23.484849">25</tspan></text></g></svg>
