<svg height="44" viewBox="0 0 50 46" width="48" xmlns="http://www.w3.org/2000/svg"><g fill="none" fill-rule="nonzero"><path class="group-shadow" d="m10.382508 39.6196283c-.74263521-.4004485-1.08121383-.8756284-.91880094-1.4036447.57992884-1.8853916 7.32359724-3.7383078 15.06126014-4.1389876 3.3612065-.1740535 6.3570679-.045542 8.6233957.3100103 3.0692326-.355524 6.3551184-.4840274 9.322666-.3100103 6.8341085.4007524 9.3923923 2.253596 5.71484 4.1389875-1.0884307.5580119-2.6014879 1.0562232-4.3681667 1.4704506l-22.652549 5.3135658c-.0000001.0000001-10.7412263-5.3575753-10.7826452-5.3803716z" fill="#000" fill-opacity=".15"/><path class="marker marker--secondary" d="m25.6516685 1.33252036c-7.4480243 0-13.4868421 6.03746914-13.4868421 13.48684204 0 2.0862459.4741468 4.0645128 1.3210362 5.8267373.0473725.1001398 12.1658059 23.8443154 12.1658059 23.8443154l12.0196421-23.5492907c.9377572-1.8359807 1.4671999-3.9170005 1.4671999-6.121762 0-7.4493729-6.037469-13.48684204-13.486842-13.48684204z" fill="#0696b0" stroke="#fff" stroke-width="1.348684" transform="matrix(.9781476 .20791169 -.20791169 .9781476 5.324113 -4.832611)"/><path d="m20.1675818 10.1186377c1.9100549 4.7117269 3.8032875 9.4295998 5.7053466 14.1437851.1745571.434522.6730986.6469687 1.1133853.4749833.2292814-.090039.3982309-.2667364.4818232-.4775441l3.9313236-9.7437628h1.4838907c.1974021 0 .4238797-.1589765.5030067-.3528827l.3758013-.9265091c.0792308-.1951355-.0180684-.3555461-.2155743-.3555461l-4.6946604.0005122c-.1979212 0-.4246065.1578497-.5035259.3522682-.1728956.4271468-.3428836.8543961-.5169214 1.2821575h1.6644704l-2.7728713 7.0110472c-.0177568.0450707-.0355137.1385923-.0532706.1829459-.0179644-.0443536-.0352021-.1377728-.0529589-.1829459l-4.2762842-10.8741142c-.1373819-.3426394-.5159869-.5338823-.874862-.5343945zm13.8287393 1.6350403c-1.6839926 0-3.3676737 0-5.0514586 0 .1738301-.427659.343922-.8549083.5170252-1.2820551.0788155-.1950331.3050855-.3525755.5030068-.3525755l4.6944526-.0005122c.1980251 0 .2952205.1609228.2159897.3549315l-.3755937.9266115c-.0792308.1951355-.3055007.3535998-.503422.3535998z" fill="#fff" transform="matrix(.9781476 .20791169 -.20791169 .9781476 4.231393 -5.343409)"/><path class="marker marker--secondary" d="m16.6786377 1.33252048c-7.4480243 0-13.48684214 6.03746915-13.48684214 13.48684212 0 2.0862458.47414679 4.0645127 1.32103618 5.8267372.04737254.1001398 12.16580596 23.8443154 12.16580596 23.8443154l12.0196423-23.5492907c.9377568-1.8359807 1.4671998-3.9170004 1.4671998-6.1217619 0-7.44937297-6.0374692-13.48684212-13.4868421-13.48684212z" fill="#0696b0" stroke="#fff" stroke-width="1.348684" transform="matrix(.9781476 -.20791169 .20791169 .9781476 -4.399094 3.968354)"/><path d="m8.81350052 9.82400459c1.91005488 4.71172691 3.80328748 9.42959971 5.70534658 14.14378511.1745571.434522.6730986.6469687 1.1133853.4749832.2292813-.0900389.3982309-.2667364.4818231-.477544l3.9313237-9.7437628h1.4838907c.1974021 0 .4238797-.1589765.5030066-.3528828l.3758014-.9265091c.0792308-.1951355-.0180684-.355546-.2155744-.355546l-4.6946603.0005122c-.1979212 0-.4246066.1578497-.5035259.3522681-.1728956.4271468-.3428836.8543962-.5169214 1.2821576h1.6644704l-2.7728713 7.0110472c-.0177569.0450706-.0355137.1385922-.0532706.1829459-.0179645-.0443537-.0352021-.1377728-.0529589-.1829459l-4.2762842-10.8741143c-.1373819-.3426393-.5159869-.53388225-.874862-.53439441zm13.82873918 1.63504031c-1.6839925 0-3.3676736 0-5.0514586 0 .1738302-.427659.3439221-.8549083.5170253-1.2820552.0788155-.19503303.3050854-.35257545.5030067-.35257545l4.6944527-.00051216c.1980251 0 .2952205.16092272.2159896.35493141l-.3755936.9266116c-.0792308.1951355-.3055007.3535998-.5034221.3535998z" fill="#fff" transform="matrix(.9781476 -.20791169 .20791169 .9781476 -3.214826 3.739314)"/></g></svg>
