<svg height="43" viewBox="0 0 51 54" width="41" xmlns="http://www.w3.org/2000/svg"><g fill="none" fill-rule="evenodd"><g fill-rule="nonzero"><path class="group-shadow" d="m48.9460112 46.1807438c-1.0521453.5660324-2.5522029 1.0689602-4.3263021 1.4848118l-22.7473868 5.3344444-.0018241-.0455607-.088058.0455607s-12.75774899-5.3786304-12.80755801-5.4015356c-.89068663-.4022942-1.38086258-.8821149-1.362998-1.4177206.05020544-1.5052309 4.09378461-3.0073271 9.69735601-3.7937267 3.820004-1.4069097 10.3300174-2.3870171 16.8171897-2.3870171 6.4883116 0 11.1432317.9800966 12.3007933 2.386994 4.1160958.7864025 5.316787 2.288484 2.518788 3.7937498z" fill="#000" fill-opacity=".15"/><path class="marker marker--secondary" d="m26.9288306 8.01449259c-7.7474195 0-14.0289854 6.28908371-14.0289854 14.04891301 0 2.1731912.4932065 4.2339033 1.3741391 6.0695694.0492768.1043132 12.6548463 24.8380391 12.6548463 24.8380391l12.5028072-24.5307192c.9754529-1.912496 1.5261782-4.0802433 1.5261782-6.3768893 0-7.7598293-6.280163-14.04891301-14.0289854-14.04891301z" fill="#04768a" stroke="#fff" stroke-width="1.402899" transform="matrix(.97437006 .22495105 -.22495105 .97437006 7.549561 -5.276142)"/><path class="marker marker--secondary" d="m16.7259318 8.01449275c-7.74741949 0-14.02898539 6.28908365-14.02898539 14.04891295 0 2.1731913.49320652 4.2339033 1.37413912 6.0695695.04927681.1043131 12.65484627 24.838039 12.65484627 24.838039l12.5028072-24.5307191c.9754529-1.9124961 1.5261783-4.0802433 1.5261783-6.3768894 0-7.7598293-6.280163-14.04891295-14.0289855-14.04891295z" fill="#04768a" stroke="#fff" stroke-width="1.402899" transform="matrix(.97437006 -.22495105 .22495105 .97437006 -6.430692 4.544043)"/><path class="marker" d="m21.8273812 1c-8.8038859 0-15.94202897 7.13654891-15.94202897 15.942029 0 2.4660326.56046196 4.8044293 1.56152174 6.8874547.05599638.1183696 14.38050723 28.1850091 14.38050723 28.1850091l14.2077355-27.8362772c1.1084694-2.1702084 1.7342935-4.6300634 1.7342935-7.2361866 0-8.80548009-7.1365488-15.942029-15.942029-15.942029z" fill="#0696b0" stroke="#fff" stroke-width="1.594203"/></g><text fill="#fff" font-family="MuseoSans-700, Museo Sans" font-size="25.507246" font-weight="500"><tspan class="marker-total" x="14.57057" y="28.826087">5</tspan></text></g></svg>
