<svg height="525" viewBox="0 0 329 525" width="329" xmlns="http://www.w3.org/2000/svg"><g fill="none" transform="translate(4.5 4)"><path d="m160 0c-88.359 0-160 71.625-160 160 0 24.75 5.625 48.219 15.672 69.125.562 1.188 144.328 282.875 144.328 282.875l142.594-279.375c11.125-21.781 17.406-46.469 17.406-72.625 0-88.375-71.625-160-160-160z" fill="#C30045" stroke="#fff" stroke-width="16"/><path d="m81.1856338 101.114653c22.6597732 55.89717 45.1199762 111.867252 67.6848922 167.793587 2.070843 5.154915 7.985248 7.675258 13.208551 5.634923 2.72006-1.068169 4.724379-3.164404 5.716068-5.665303l46.638923-115.594298h17.60401c2.341863 0 5.028661-1.886004 5.967377-4.186394l4.458287-10.991562c.939948-2.314973-.214353-4.21799-2.557448-4.21799l-55.694702.006076c-2.348022 0-5.037284 1.872637-5.973537 4.179103-2.051132 5.06742-4.06777 10.136056-6.132453 15.210767h19.746303l-32.895722 83.17496c-.210657.534692-.421314 1.644177-.631971 2.170363-.21312-.526186-.417618-1.634456-.628274-2.170363l-50.731332-129.004126c-1.629819-4.064873-6.121367-6.333667-10.3788514-6.339743zm164.0560672 19.397161c-19.977902 0-39.952109 0-59.927548 0 2.062219-5.073496 4.08009-10.142132 6.133685-15.209552.935021-2.313758 3.619355-4.182749 5.967378-4.182749l55.692238-.006076c2.349254 0 3.502323 1.909093 2.562375 4.210699l-4.455823 10.992777c-.939948 2.314973-3.624282 4.194901-5.972305 4.194901z" fill="#fff"/></g></svg>
