<svg height="60" viewBox="0 0 70 64" width="66" xmlns="http://www.w3.org/2000/svg"><g fill="none" fill-rule="evenodd"><g fill-rule="nonzero"><path class="group-shadow" d="m30.7707169 62.9064898-.0395965-.0417441-.172804.0820177s-.127667-.0562341-.3587404-.1580182l-.2633381.2112548s-18.3492214-4.5310369-18.4223651-4.5505826c-1.3021978-.342412-2.22282295-.7824541-2.62583968-1.304906-1.26885031-1.6448779 3.00603478-3.5631111 9.83312898-4.5900618 2.1821618-.7758525 5.1904604-1.4427697 8.6317592-1.8919537 4.7422318-1.5742215 12.3932382-2.6624959 19.8647416-2.6624959 7.5097187 0 12.7735149 1.0990374 14.0082445 2.6858274 2.3488657.4434078 3.8336074 1.0903445 4.3143506 1.841208 4.6844061 1.0200086 4.770573 2.9578239-.1719994 4.617476-1.6442901.5521314-3.661129 1.0114484-5.8537069 1.3617197l-28.1157028 4.4937689s.0833822-.0868355.2320767-.2416831l-.8436962.1884464.0047425-.0470096z" fill="#000" fill-opacity=".15"/><path class="marker marker--secondary" d="m41.529824 16.1078945c-8.2739676 0-14.9824559 6.70699-14.9824559 14.9824558 0 2.3175987.5267269 4.5152441 1.4675315 6.4728893.0526259.1112448 13.5149244 26.4885138 13.5149244 26.4885138l13.3525519-26.1607726c1.0417489-2.0395804 1.629904-4.3513734 1.629904-6.8006305 0-8.2754658-6.7069899-14.9824558-14.9824559-14.9824558z" fill="#04768a" stroke="#fff" stroke-width="1.498246" transform="matrix(.90630779 .42261826 -.42261826 .90630779 20.829487 -13.796095)"/><path class="marker marker--secondary" d="m36.6602529 9.52933256c-9.0865894 0-16.4539471 7.37768894-16.4539471 16.48070134 0 2.5493586.5784591 4.9667685 1.6116641 7.1201779.0577945.1223692 14.842283 29.1373653 14.842283 29.1373653l14.6639633-28.7768499c1.1440632-2.2435383 1.7899837-4.7865105 1.7899837-7.4806933 0-9.1030124-7.3657123-16.48070134-16.453947-16.48070134z" fill="#05879e" stroke="#fff" stroke-width="1.64807" transform="matrix(.97437006 .22495105 -.22495105 .97437006 9.014995 -7.326687)"/><path class="marker marker--secondary" d="m19.8052628 16.1078944c-8.2739676 0-14.98245593 6.7069901-14.98245593 14.9824559 0 2.3175987.52672698 4.5152441 1.46753156 6.4728893.05262587.1112447 13.51492437 26.4885138 13.51492437 26.4885138l13.3525521-26.1607726c1.0417489-2.0395805 1.6299039-4.3513735 1.6299039-6.8006305 0-8.2754658-6.7069901-14.9824559-14.982456-14.9824559z" fill="#04768a" stroke="#fff" stroke-width="1.498246" transform="matrix(.90630779 -.42261826 .42261826 .90630779 -15.082867 12.125233)"/><path class="marker marker--secondary" d="m24.5678164 9.52933308c-9.0865893 0-16.45394693 7.37768892-16.45394693 16.48070132 0 2.5493585.57845907 4.9667684 1.61166411 7.1201781.05779448.1223692 14.84228282 29.137365 14.84228282 29.137365l14.6639633-28.7768497c1.1440636-2.2435385 1.7899837-4.7865108 1.7899837-7.4806934 0-9.1030124-7.3657122-16.48070132-16.453947-16.48070132z" fill="#05879e" stroke="#fff" stroke-width="1.64807" transform="matrix(.97437006 -.22495105 .22495105 .97437006 -7.445724 6.446631)"/><path class="marker" d="m30.6675433 1.5c-10.3424596 0-18.7280699 8.38373753-18.7280699 18.7280699 0 2.8969983.6584087 5.6440549 1.8344145 8.0911114.0657823.139056 16.8936554 33.1106422 16.8936554 33.1106422l16.69069-32.7009656c1.302186-2.5494757 2.0373799-5.4392168 2.0373799-8.500788 0-10.34433237-8.3837375-18.7280699-18.7280699-18.7280699z" fill="#0696b0" stroke="#fff" stroke-width="1.872807"/></g><text fill="#fff" font-family="MuseoSans-700, Museo Sans" font-size="17.229824" font-weight="500"><tspan class="marker-total" x="15.505298" y="26.114912">825</tspan></text></g></svg>
